<?xml version="1.0" encoding="UTF-8" standalone="no"?>
<!-- Created with Inkscape (http://www.inkscape.org/) -->

<svg
   width="42.473286mm"
   height="15.814312mm"
   viewBox="0 0 42.473286 15.814312"
   version="1.1"
   id="svg1"
   xmlns="http://www.w3.org/2000/svg"
   xmlns:svg="http://www.w3.org/2000/svg">
  <defs
     id="defs1" />
  <g
     id="layer1"
     transform="translate(-94.339679,-76.705015)">
    <g
       id="text3"
       style="font-size:9.87777px;line-height:0.8;font-family:'Bentley Vintage';-inkscape-font-specification:'Bentley Vintage';text-align:center;letter-spacing:0px;text-anchor:middle;stroke-width:0.264583"
       aria-label="shroom&#10;mates">
      <path
         d="m 97.124085,84.617111 c 1.540932,0 2.805286,-0.414866 2.805286,-1.580443 0,-1.511299 -3.170764,-1.570566 -3.170764,-2.894187 0,-0.325966 0.217311,-0.493888 0.454377,-0.493888 0.276578,0 0.503767,0.158044 0.632178,0.66181 0.07902,0.335844 0.227189,0.651933 0.780344,0.681566 0.03951,0 0.07902,0 0.118533,0 0.642055,0 1.007532,-0.385233 0.948266,-0.780343 -0.07902,-0.553156 -0.849488,-1.224844 -2.528709,-1.224844 -1.857021,0 -2.558343,0.760588 -2.558343,1.659465 0,1.738488 2.933698,1.432277 2.933698,2.666998 0,0.395111 -0.227189,0.6223 -0.5334,0.6223 -0.325966,0 -0.553155,-0.158044 -0.681566,-0.671688 -0.0889,-0.345722 -0.237066,-0.671689 -0.800099,-0.701322 -0.03951,0 -0.07902,0 -0.118534,0 -0.671688,0 -1.135943,0.404988 -1.056921,0.918633 0.0889,0.642055 1.027288,1.135943 2.775654,1.135943 z m 4.919125,0 c 1.03716,0 1.63971,-0.296333 1.63971,-0.770466 0,-0.5334 -0.6223,-0.977899 -0.6223,-2.222498 0,-0.790222 0.29633,-1.244599 0.72107,-1.244599 0.38524,0 0.55316,0.533399 0.55316,1.165577 0,0.968021 -0.27658,1.205088 -0.27658,1.85702 0,0.701322 0.48401,1.214966 1.38289,1.214966 1.14582,0 1.73849,-0.888999 1.73849,-1.382888 0,-0.92851 -0.94827,-0.66181 -0.94827,-1.659465 0,-0.671689 0.42475,-1.027288 0.42475,-1.521177 0,-0.691444 -0.64206,-1.066799 -1.3335,-1.066799 -0.79023,0 -1.5113,0.345722 -2.29165,1.165577 0,-1.768121 0.40499,-2.17311 0.40499,-2.775654 0,-0.39511 -0.24694,-0.671688 -0.94826,-0.671688 -0.7112,0 -2.08421,0.246944 -2.08421,1.126066 0,0.691444 0.65193,0.75071 0.65193,2.47932 v 1.027288 c 0,1.580444 -0.65193,1.975554 -0.65193,2.508954 0,0.474133 0.60254,0.770466 1.63971,0.770466 z m 8.96901,-4.237563 c 0.38524,0 0.48402,0.424744 0.39512,1.116188 -0.079,0.651933 0.14816,1.047043 0.83961,1.047043 0.59266,0 1.62983,-0.493888 1.62983,-1.807632 0,-1.224843 -0.63218,-1.748365 -1.37301,-1.748365 -0.76059,0 -1.47179,0.454377 -1.8669,0.938388 0.0198,-0.0889 0.0296,-0.1778 0.0296,-0.286455 0,-0.395111 -0.24694,-0.671689 -0.94826,-0.671689 -0.7112,0 -2.08421,0.246945 -2.08421,1.126066 0,0.691444 0.65193,0.414867 0.65193,1.847143 0,1.284111 -0.65193,1.175455 -0.65193,1.787877 0,0.553155 0.60254,0.888999 1.63971,0.888999 1.03716,0 1.63971,-0.335844 1.63971,-0.869244 0,-0.602544 -0.65194,-0.721077 -0.65194,-1.94592 0,-0.829733 0.31609,-1.422399 0.75071,-1.422399 z m 6.91444,1.422399 c 0,1.244599 -0.23707,2.084209 -0.7112,2.084209 -0.47413,0 -0.70132,-0.83961 -0.70132,-2.084209 0,-1.2446 0.22719,-2.08421 0.70132,-2.08421 0.47413,0 0.7112,0.83961 0.7112,2.08421 z m -3.52636,0 c 0,1.906409 1.29398,2.815164 2.81516,2.815164 1.50142,0 2.82504,-0.908755 2.82504,-2.815164 0,-1.90641 -1.32362,-2.815165 -2.82504,-2.815165 -1.52118,0 -2.81516,0.908755 -2.81516,2.815165 z m 9.75924,0 c 0,1.244599 -0.23707,2.084209 -0.7112,2.084209 -0.47413,0 -0.70132,-0.83961 -0.70132,-2.084209 0,-1.2446 0.22719,-2.08421 0.70132,-2.08421 0.47413,0 0.7112,0.83961 0.7112,2.08421 z m -3.52637,0 c 0,1.906409 1.29399,2.815164 2.81517,2.815164 1.50142,0 2.82504,-0.908755 2.82504,-2.815164 0,-1.90641 -1.32362,-2.815165 -2.82504,-2.815165 -1.52118,0 -2.81517,0.908755 -2.81517,2.815165 z m 12.68307,1.94592 c 0,-0.602544 -0.52352,-0.997654 -0.52352,-2.064454 0,-0.632177 0.19755,-1.303865 0.65193,-1.303865 0.37535,0 0.52352,0.582788 0.52352,1.165577 0,0.968021 -0.27658,1.205088 -0.27658,1.85702 0,0.701322 0.48401,1.214966 1.38289,1.214966 1.14582,0 1.73849,-0.888999 1.73849,-1.382888 0,-0.92851 -0.94827,-0.66181 -0.94827,-1.659465 0,-0.671689 0.42475,-1.027288 0.42475,-1.521177 0,-0.691444 -0.64206,-1.066799 -1.3335,-1.066799 -0.80998,0 -1.4224,0.454377 -1.81751,0.938388 0.079,-0.770466 -0.59267,-0.938388 -1.17546,-0.938388 -0.80997,0 -1.76812,0.454377 -2.16323,0.938388 0.0198,-0.0889 0.0296,-0.1778 0.0296,-0.286455 0,-0.395111 -0.24694,-0.671689 -0.94826,-0.671689 -0.7112,0 -2.08421,0.246945 -2.08421,1.126066 0,0.691444 0.65193,0.414867 0.65193,1.847143 0,1.284111 -0.65193,1.175455 -0.65193,1.787877 0,0.553155 0.60254,0.888999 1.63971,0.888999 1.03716,0 1.63971,-0.335844 1.63971,-0.869244 0,-0.602544 -0.65193,-0.721077 -0.65193,-1.94592 0,-0.750711 0.34572,-1.422399 0.80997,-1.422399 0.41487,0 0.55316,0.493888 0.55316,1.412521 0,0.997655 -0.3556,1.353254 -0.3556,1.955798 0,0.5334 0.40499,0.869244 1.44215,0.869244 1.03717,0 1.44216,-0.335844 1.44216,-0.869244 z"
         id="path4" />
      <path
         d="m 105.9153,91.650084 c 0,-0.602544 -0.52352,-0.997655 -0.52352,-2.064454 0,-0.632178 0.19755,-1.303866 0.65193,-1.303866 0.37536,0 0.52352,0.582789 0.52352,1.165577 0,0.968021 -0.27658,1.205088 -0.27658,1.857021 0,0.701322 0.48402,1.214966 1.38289,1.214966 1.14582,0 1.73849,-0.889 1.73849,-1.382888 0,-0.928511 -0.94827,-0.661811 -0.94827,-1.659466 0,-0.671688 0.42475,-1.027288 0.42475,-1.521176 0,-0.691444 -0.64206,-1.0668 -1.3335,-1.0668 -0.80998,0 -1.4224,0.454378 -1.81751,0.938389 0.079,-0.770466 -0.59267,-0.938389 -1.17545,-0.938389 -0.80998,0 -1.76813,0.454378 -2.16324,0.938389 0.0198,-0.0889 0.0296,-0.1778 0.0296,-0.286456 0,-0.395111 -0.24695,-0.671688 -0.94827,-0.671688 -0.7112,0 -2.084209,0.246944 -2.084209,1.126066 0,0.691444 0.651929,0.414866 0.651929,1.847143 0,1.28411 -0.651929,1.175454 -0.651929,1.787876 0,0.553155 0.602544,0.889 1.639709,0.889 1.03717,0 1.63971,-0.335845 1.63971,-0.869244 0,-0.602544 -0.65193,-0.721077 -0.65193,-1.945921 0,-0.750711 0.34572,-1.422399 0.80998,-1.422399 0.41486,0 0.55315,0.493889 0.55315,1.412521 0,0.997655 -0.3556,1.353255 -0.3556,1.955799 0,0.533399 0.40499,0.869244 1.44216,0.869244 1.03716,0 1.44215,-0.335845 1.44215,-0.869244 z m 5.44265,0.869244 c 0.68156,0 1.43227,-0.306211 1.83726,-0.790222 0.15805,0.484011 0.54328,0.790222 1.12607,0.790222 1.14582,0 1.73848,-0.898878 1.73848,-1.402644 0,-0.938388 -0.94826,-0.671688 -0.94826,-1.501421 0,-0.553155 0.33584,-0.829733 0.33584,-1.323621 0,-0.948266 -1.07667,-1.402644 -2.45956,-1.402644 -1.74837,0 -2.54847,0.7112 -2.63737,1.303866 -0.0593,0.414867 0.32597,0.829733 1.01741,0.829733 0.0395,0 0.079,0 0.11854,0 0.59266,-0.03951 0.74083,-0.365478 0.82973,-0.730955 0.0691,-0.296333 0.25682,-0.553155 0.56303,-0.553155 0.22719,0 0.42475,0.138288 0.4445,0.602544 -0.0691,1.402643 -3.48685,0.493888 -3.48685,2.597853 0,1.037166 0.69144,1.580444 1.52118,1.580444 z m 1.87677,-3.022598 c -0.0494,0.385233 -0.0988,0.760588 -0.12841,1.19521 -0.16792,0.316089 -0.39511,0.592666 -0.67169,0.592666 -0.2667,0 -0.39511,-0.148166 -0.39511,-0.444499 0,-0.691444 0.70132,-0.987777 1.19521,-1.343377 z m 3.2498,-2.716387 c -0.22719,0.118533 -0.4445,0.2667 -0.4445,0.563033 0,0.286455 0.18767,0.434622 0.4445,0.434622 0.28645,0 0.56303,0.09878 0.56303,0.503766 0,0.750711 -0.36548,1.165577 -0.36548,2.202743 0,1.254477 0.66181,2.034821 1.72861,2.034821 1.00753,0 1.61995,-0.572911 1.61995,-1.175455 0,-0.316089 -0.1778,-0.572911 -0.48401,-0.572911 -0.31608,0 -0.70132,-0.03951 -0.70132,-0.859366 0,-0.819855 0.12841,-1.491543 0.23707,-2.133598 h 0.37535 c 0.34573,0 0.55316,-0.158045 0.55316,-0.4445 0,-0.286455 -0.20743,-0.4445 -0.55316,-0.4445 h -0.25682 c 0.01,-0.148166 0.0198,-0.296333 0.0198,-0.454377 0,-0.711199 -0.20744,-1.165577 -0.72108,-1.165577 -0.64205,0 -1.22484,1.076677 -2.01506,1.511299 z m 6.56871,5.738985 c 1.4224,0 2.42005,-0.849489 2.51883,-1.708855 0.0198,-0.187677 -0.0494,-0.276577 -0.15804,-0.276577 -0.0691,0 -0.14817,0.02963 -0.23707,0.09878 -0.41487,0.325967 -0.91863,0.513645 -1.38289,0.513645 -0.6223,0 -1.16558,-0.3556 -1.27423,-1.175455 0.28645,0.09878 0.59267,0.148166 0.90875,0.148166 1.04705,0 2.10397,-0.533399 2.10397,-1.590321 0,-0.760588 -0.60254,-1.63971 -2.32128,-1.63971 -1.54093,0 -2.78553,1.007533 -2.78553,2.825043 0,1.81751 1.14582,2.805287 2.62749,2.805287 z m -0.5334,-3.299176 c 0.0889,-0.987777 0.47413,-1.610076 0.889,-1.610076 0.66181,0 0.33584,1.619954 -0.889,1.610076 z m 6.39092,3.299176 c 1.54094,0 2.80529,-0.414867 2.80529,-1.580444 0,-1.511299 -3.17076,-1.570565 -3.17076,-2.894186 0,-0.325967 0.21731,-0.493889 0.45437,-0.493889 0.27658,0 0.50377,0.158044 0.63218,0.661811 0.079,0.335844 0.22719,0.651933 0.78034,0.681566 0.0395,0 0.079,0 0.11854,0 0.64205,0 1.00753,-0.385233 0.94826,-0.780344 -0.079,-0.553155 -0.84948,-1.224844 -2.52871,-1.224844 -1.85702,0 -2.55834,0.760589 -2.55834,1.659466 0,1.738487 2.9337,1.432277 2.9337,2.666998 0,0.395111 -0.22719,0.622299 -0.5334,0.622299 -0.32597,0 -0.55315,-0.158044 -0.68157,-0.671688 -0.0889,-0.345722 -0.23706,-0.671688 -0.8001,-0.701322 -0.0395,0 -0.079,0 -0.11853,0 -0.67169,0 -1.13594,0.404989 -1.05692,0.918633 0.0889,0.642055 1.02729,1.135944 2.77565,1.135944 z"
         id="path5" />
    </g>
  </g>
</svg>
