<?xml version="1.0" encoding="UTF-8" standalone="no"?>
<!-- Created with Inkscape (http://www.inkscape.org/) -->

<svg
   width="58.278896mm"
   height="9.7691145mm"
   viewBox="0 0 58.278896 9.7691145"
   version="1.1"
   id="svg1"
   xmlns="http://www.w3.org/2000/svg"
   xmlns:svg="http://www.w3.org/2000/svg">
  <defs
     id="defs1" />
  <g
     id="layer1"
     transform="translate(-108.15589,-106.19774)">
    <path
       d="m 111.53412,109.98093 c 0.38523,0 0.55316,0.5334 0.55316,1.16558 0,0.96802 -0.27658,1.20509 -0.27658,1.85702 0,0.70132 0.48401,1.21497 1.38289,1.21497 1.14582,0 1.73848,-0.889 1.73848,-1.38289 0,-0.92851 -0.94826,-0.66181 -0.94826,-1.65947 0,-0.67168 0.42474,-1.02728 0.42474,-1.52117 0,-0.69145 -0.64205,-1.0668 -1.3335,-1.0668 -0.80997,0 -1.52117,0.45438 -1.91628,0.93839 0.0198,-0.0889 0.0296,-0.1778 0.0296,-0.28646 0,-0.39511 -0.24694,-0.67169 -0.94827,-0.67169 -0.7112,0 -2.08421,0.24695 -2.08421,1.12607 0,0.69144 0.65194,0.41487 0.65194,1.84714 0,1.28411 -0.65194,1.17546 -0.65194,1.78788 0,0.55315 0.60255,0.889 1.63971,0.889 1.03717,0 1.63971,-0.33585 1.63971,-0.86925 0,-0.60254 -0.65193,-0.72107 -0.65193,-1.94592 0,-0.82973 0.31609,-1.4224 0.75071,-1.4224 z m 5.34388,4.23757 c 0.68157,0 1.43228,-0.30621 1.83726,-0.79022 0.15805,0.48401 0.54328,0.79022 1.12607,0.79022 1.14582,0 1.73849,-0.89888 1.73849,-1.40265 0,-0.93838 -0.94827,-0.67168 -0.94827,-1.50142 0,-0.55315 0.33585,-0.82973 0.33585,-1.32362 0,-0.94826 -1.07668,-1.40264 -2.45957,-1.40264 -1.74836,0 -2.54846,0.7112 -2.63736,1.30386 -0.0593,0.41487 0.32596,0.82974 1.01741,0.82974 0.0395,0 0.079,0 0.11853,0 0.59267,-0.0395 0.74083,-0.36548 0.82973,-0.73096 0.0691,-0.29633 0.25682,-0.55315 0.56304,-0.55315 0.22718,0 0.42474,0.13829 0.4445,0.60254 -0.0692,1.40264 -3.48686,0.49389 -3.48686,2.59785 0,1.03717 0.69145,1.58045 1.52118,1.58045 z m 1.87678,-3.0226 c -0.0494,0.38523 -0.0988,0.76059 -0.12842,1.19521 -0.16792,0.31609 -0.39511,0.59267 -0.67168,0.59267 -0.2667,0 -0.39511,-0.14817 -0.39511,-0.4445 0,-0.69145 0.70132,-0.98778 1.19521,-1.34338 z m 6.18348,-1.88665 c 0.45438,0 0.30621,0.7112 0.37536,1.00753 0.0889,0.36548 0.23706,0.69144 0.82973,0.73095 0.0395,0 0.079,0 0.11853,0 0.69145,0 1.07668,-0.42474 0.98778,-0.9779 -0.0988,-0.70132 -0.78034,-1.48166 -2.36079,-1.48166 -1.54093,0 -2.78553,1.00753 -2.78553,2.82504 0,1.81751 1.14582,2.80529 2.62749,2.80529 1.4224,0 2.42005,-0.84949 2.51883,-1.70886 0.0198,-0.18767 -0.0494,-0.27657 -0.15804,-0.27657 -0.0692,0 -0.14817,0.0296 -0.23707,0.0988 -0.41487,0.32597 -0.91863,0.50377 -1.38289,0.50377 -0.70132,0 -1.29399,-0.43462 -1.29399,-1.47179 0,-1.2446 0.43463,-2.05457 0.76059,-2.05457 z m 4.49439,4.90925 c 1.03717,0 1.63971,-0.29633 1.63971,-0.77047 0,-0.5334 -0.6223,-0.9779 -0.6223,-2.2225 0,-0.79022 0.29633,-1.2446 0.72108,-1.2446 0.38523,0 0.55315,0.5334 0.55315,1.16558 0,0.96802 -0.27657,1.20509 -0.27657,1.85702 0,0.70132 0.48401,1.21497 1.38288,1.21497 1.14582,0 1.73849,-0.889 1.73849,-1.38289 0,-0.92851 -0.94826,-0.66181 -0.94826,-1.65947 0,-0.67168 0.42474,-1.02728 0.42474,-1.52117 0,-0.69145 -0.64206,-1.0668 -1.3335,-1.0668 -0.79022,0 -1.5113,0.34572 -2.29164,1.16558 0,-1.76812 0.40499,-2.17311 0.40499,-2.77566 0,-0.39511 -0.24695,-0.67169 -0.94827,-0.67169 -0.7112,0 -2.08421,0.24695 -2.08421,1.12607 0,0.69144 0.65193,0.75071 0.65193,2.47932 v 1.02729 c 0,1.58044 -0.65193,1.97555 -0.65193,2.50895 0,0.47414 0.60254,0.77047 1.63971,0.77047 z m 7.23053,0 c 1.03717,0 1.63971,-0.29633 1.63971,-0.77047 0,-0.5334 -0.6223,-0.9779 -0.6223,-2.2225 0,-0.79022 0.29633,-1.2446 0.72108,-1.2446 0.38523,0 0.55315,0.5334 0.55315,1.16558 0,0.96802 -0.27657,1.20509 -0.27657,1.85702 0,0.70132 0.48401,1.21497 1.38288,1.21497 1.14582,0 1.73849,-0.889 1.73849,-1.38289 0,-0.92851 -0.94827,-0.66181 -0.94827,-1.65947 0,-0.67168 0.42475,-1.02728 0.42475,-1.52117 0,-0.69145 -0.64206,-1.0668 -1.3335,-1.0668 -0.79022,0 -1.5113,0.34572 -2.29164,1.16558 0,-1.76812 0.40499,-2.17311 0.40499,-2.77566 0,-0.39511 -0.24695,-0.67169 -0.94827,-0.67169 -0.7112,0 -2.08421,0.24695 -2.08421,1.12607 0,0.69144 0.65193,0.75071 0.65193,2.47932 v 1.02729 c 0,1.58044 -0.65193,1.97555 -0.65193,2.50895 0,0.47414 0.60254,0.77047 1.63971,0.77047 z m 7.08237,0 c 0.68156,0 1.43227,-0.30621 1.83726,-0.79022 0.15805,0.48401 0.54328,0.79022 1.12607,0.79022 1.14582,0 1.73849,-0.89888 1.73849,-1.40265 0,-0.93838 -0.94827,-0.67168 -0.94827,-1.50142 0,-0.55315 0.33584,-0.82973 0.33584,-1.32362 0,-0.94826 -1.07667,-1.40264 -2.45956,-1.40264 -1.74837,0 -2.54847,0.7112 -2.63737,1.30386 -0.0593,0.41487 0.32597,0.82974 1.01742,0.82974 0.0395,0 0.079,0 0.11853,0 0.59266,-0.0395 0.74083,-0.36548 0.82973,-0.73096 0.0692,-0.29633 0.25682,-0.55315 0.56303,-0.55315 0.22719,0 0.42475,0.13829 0.4445,0.60254 -0.0691,1.40264 -3.48685,0.49389 -3.48685,2.59785 0,1.03717 0.69144,1.58045 1.52118,1.58045 z m 1.87677,-3.0226 c -0.0494,0.38523 -0.0988,0.76059 -0.12841,1.19521 -0.16792,0.31609 -0.39511,0.59267 -0.67169,0.59267 -0.2667,0 -0.39511,-0.14817 -0.39511,-0.4445 0,-0.69145 0.70133,-0.98778 1.19521,-1.34338 z m 3.93136,-0.25682 c 0,1.58044 -0.65194,1.97555 -0.65194,2.50895 0,0.47414 0.60255,0.77047 1.63971,0.77047 1.03717,0 1.63971,-0.29633 1.63971,-0.77047 0,-0.5334 -0.65193,-0.92851 -0.65193,-2.50895 v -1.18533 c 0,-1.76812 0.40499,-2.17311 0.40499,-2.77566 0,-0.39511 -0.24695,-0.67169 -0.94827,-0.67169 -0.7112,0 -2.08421,0.24695 -2.08421,1.12607 0,0.69144 0.65194,0.75071 0.65194,2.47932 z m 3.29918,-2.45957 c -0.22719,0.11854 -0.4445,0.2667 -0.4445,0.56304 0,0.28645 0.18768,0.43462 0.4445,0.43462 0.28645,0 0.56303,0.0988 0.56303,0.50376 0,0.75072 -0.36548,1.16558 -0.36548,2.20275 0,1.25447 0.66181,2.03482 1.72861,2.03482 1.00753,0 1.61996,-0.57291 1.61996,-1.17546 0,-0.31609 -0.1778,-0.57291 -0.48401,-0.57291 -0.31609,0 -0.70133,-0.0395 -0.70133,-0.85936 0,-0.81986 0.12842,-1.49155 0.23707,-2.1336 h 0.37536 c 0.34572,0 0.55315,-0.15805 0.55315,-0.4445 0,-0.28646 -0.20743,-0.4445 -0.55315,-0.4445 h -0.25683 c 0.01,-0.14817 0.0198,-0.29633 0.0198,-0.45438 0,-0.7112 -0.20743,-1.16558 -0.72108,-1.16558 -0.64205,0 -1.22484,1.07668 -2.01506,1.5113 z m 6.59834,2.9337 c 0,-1.45203 0.40499,-1.57056 0.40499,-2.17311 0,-0.39511 -0.24694,-0.67169 -0.94826,-0.67169 -0.7112,0 -2.08421,0.24695 -2.08421,1.12607 0,0.69144 0.65193,0.41487 0.65193,1.84714 0,1.28411 -0.65193,1.17546 -0.65193,1.78788 0,0.55315 0.60254,0.889 1.63971,0.889 1.03716,0 1.63971,-0.33585 1.63971,-0.86925 0,-0.60254 -0.65194,-0.7112 -0.65194,-1.93604 z m -2.62748,-4.05976 c 0,-0.73096 0.99765,-1.1557 1.8669,-1.1557 0.67168,0 1.26435,0.24694 1.26435,0.81985 0,0.73096 -0.99765,1.1557 -1.8669,1.1557 -0.67169,0 -1.26435,-0.24694 -1.26435,-0.81985 z m 5.00803,5.34387 c -0.73096,0.29633 -1.18533,0.92851 -1.18533,1.65947 0,0.85936 0.54327,1.32362 1.16557,1.32362 0.90876,0 1.39277,-0.82973 2.07434,-0.82973 0.70132,0 -0.0593,1.11618 1.02728,1.11618 0.889,0 1.47179,-0.64205 1.47179,-1.36313 0,-0.91863 -0.68157,-1.30386 -1.38289,-1.30386 -0.99765,0 -2.07433,0.55315 -2.51883,0.55315 -0.30621,0 -0.45438,-0.1778 -0.45438,-0.39511 0,-0.39511 0.42475,-0.47413 0.73096,-0.47413 0.21731,0.0296 0.4445,0.0494 0.68157,0.0494 1.50142,0 2.82504,-0.72108 2.82504,-2.2225 0,-1.21497 -0.85937,-1.91629 -1.98543,-2.14348 0.11853,-0.2667 0.2667,-0.39511 0.43462,-0.39511 0.21731,0 0.47413,0.13829 0.8001,0.13829 0.57291,0 0.91863,-0.5334 0.91863,-1.00753 0,-0.50377 -0.45438,-0.72108 -0.889,-0.72108 -0.80998,0 -1.54093,0.72108 -1.74836,1.91629 -0.11854,-0.01 -0.23707,-0.01 -0.3556,-0.01 -1.52118,0 -2.81517,0.72108 -2.81517,2.2225 0,0.91863 0.48401,1.54093 1.20509,1.88665 z m 1.61008,-3.3782 c 0.47413,0 0.71119,0.73096 0.71119,1.49155 0,0.76059 -0.23706,1.49154 -0.71119,1.49154 -0.47414,0 -0.70133,-0.73095 -0.70133,-1.49154 0,-0.76059 0.22719,-1.49155 0.70133,-1.49155 z"
       id="text5"
       style="font-size:9.87777px;line-height:0.8;font-family:'Bentley Vintage';-inkscape-font-specification:'Bentley Vintage';text-align:center;letter-spacing:0px;text-anchor:middle;stroke-width:0.264583"
       aria-label="nachhaltig" />
  </g>
</svg>
