<?xml version="1.0" encoding="UTF-8" standalone="no"?>
<!-- Created with Inkscape (http://www.inkscape.org/) -->

<svg
   width="48.598694mm"
   height="7.9121304mm"
   viewBox="0 0 48.598694 7.9121304"
   version="1.1"
   id="svg1"
   xmlns="http://www.w3.org/2000/svg"
   xmlns:svg="http://www.w3.org/2000/svg">
  <defs
     id="defs1" />
  <g
     id="layer1"
     transform="translate(-27.449394,-106.16043)">
    <path
       style="font-size:9.87778px;font-family:'Bentley Vintage';-inkscape-font-specification:'Bentley Vintage';text-align:center;text-anchor:middle;stroke-width:0.264583"
       d="m 29.820062,111.97844 c 0,-1.21497 0.563034,-2.23238 0.563034,-2.88432 0,-0.39511 -0.1778,-0.67169 -0.859367,-0.67169 -0.7112,0 -2.074334,0.24695 -2.074334,1.12607 0,0.69145 0.553156,0.6223 0.553156,1.48167 0,0.76059 -0.296334,0.91863 -0.296334,1.59032 0,0.89888 0.740834,1.45204 1.580445,1.45204 0.770467,0 1.343378,-0.40499 1.728612,-0.90876 0.07902,0.5334 0.553155,0.90876 1.373011,0.90876 1.145823,0 1.738489,-0.87913 1.738489,-1.37302 0,-0.91863 -0.889,-0.7112 -0.889,-1.69897 0,-1.04705 0.513645,-1.30387 0.513645,-1.90642 0,-0.39511 -0.246945,-0.67169 -0.948267,-0.67169 -0.730956,0 -1.985434,0.21732 -1.985434,1.12607 0,0.57291 0.454378,0.63218 0.454378,1.85702 0,0.80998 -0.464256,1.47179 -0.869245,1.47179 -0.2667,0 -0.582789,-0.22719 -0.582789,-0.89887 z m -1.234722,-4.72158 c 0,0.49389 0.385233,0.70132 0.819856,0.70132 0.553155,0 1.195211,-0.36548 1.195211,-0.99766 0,-0.49389 -0.375356,-0.70132 -0.809978,-0.70132 -0.563034,0 -1.205089,0.36548 -1.205089,0.99766 z m 2.291645,0 c 0,0.49389 0.385233,0.70132 0.819855,0.70132 0.563034,0 1.20509,-0.36548 1.20509,-0.99766 0,-0.49389 -0.375356,-0.70132 -0.819856,-0.70132 -0.563034,0 -1.205089,0.36548 -1.205089,0.99766 z m 4.158542,2.50895 v 1.02729 c 0,1.61008 -0.651934,1.97556 -0.651934,2.50896 0,0.47413 0.602545,0.77047 1.481667,0.77047 0.533401,0 0.869245,-0.18768 1.02729,-0.59267 0.3556,0.39511 0.859366,0.59267 1.5113,0.59267 1.135945,0 2.1336,-0.90876 2.1336,-2.81517 0,-1.90641 -0.997655,-2.81517 -2.1336,-2.81517 -0.572911,0 -1.027289,0.14817 -1.363134,0.45438 0.07902,-1.18534 0.375356,-1.55081 0.375356,-2.06446 0,-0.39511 -0.246945,-0.67169 -0.948267,-0.67169 -0.7112,0 -2.084212,0.24695 -2.084212,1.12607 0,0.69144 0.651934,0.75071 0.651934,2.47932 z m 1.975556,1.49155 c 0,-1.20509 0.227189,-2.02495 0.701322,-2.02495 0.474134,0 0.7112,0.81986 0.7112,2.02495 0,1.20509 -0.237066,2.02494 -0.7112,2.02494 -0.474133,0 -0.701322,-0.81985 -0.701322,-2.02494 z m 6.74653,2.81517 c 1.4224,0 2.420056,-0.84949 2.518834,-1.70886 0.01976,-0.18768 -0.04939,-0.27658 -0.158045,-0.27658 -0.06914,0 -0.148167,0.0296 -0.237067,0.0988 -0.414866,0.32597 -0.918633,0.51364 -1.382889,0.51364 -0.6223,0 -1.165578,-0.3556 -1.274233,-1.17545 0.286455,0.0988 0.592666,0.14816 0.908755,0.14816 1.047045,0 2.103967,-0.5334 2.103967,-1.59032 0,-0.76059 -0.602544,-1.63971 -2.321278,-1.63971 -1.540933,0 -2.785534,1.00753 -2.785534,2.82505 0,1.81751 1.145823,2.80529 2.62749,2.80529 z m -0.5334,-3.29918 c 0.0889,-0.98778 0.474133,-1.61008 0.889,-1.61008 0.661811,0 0.335844,1.61995 -0.889,1.61008 z m 6.963841,-0.93839 c 0.385234,0 0.484011,0.42474 0.395111,1.11619 -0.07902,0.65193 0.148167,1.04704 0.839612,1.04704 0.592666,0 1.629833,-0.49389 1.629833,-1.80763 0,-1.22485 -0.632178,-1.74837 -1.373011,-1.74837 -0.760589,0 -1.471789,0.45438 -1.8669,0.93839 0.01975,-0.0889 0.02963,-0.1778 0.02963,-0.28646 0,-0.39511 -0.246945,-0.67169 -0.948267,-0.67169 -0.7112,0 -2.084212,0.24695 -2.084212,1.12607 0,0.69145 0.651934,0.41487 0.651934,1.84715 0,1.28411 -0.651934,1.17545 -0.651934,1.78787 0,0.55316 0.602545,0.88901 1.639712,0.88901 1.037167,0 1.639711,-0.33585 1.639711,-0.86925 0,-0.60254 -0.651933,-0.72108 -0.651933,-1.94592 0,-0.82974 0.316089,-1.4224 0.750711,-1.4224 z m 8.257823,2.14348 c 0,-1.21497 0.563033,-2.23238 0.563033,-2.88432 0,-0.39511 -0.1778,-0.67169 -0.859367,-0.67169 -0.7112,0 -2.074333,0.24695 -2.074333,1.12607 0,0.69145 0.553155,0.6223 0.553155,1.48167 0,0.76059 -0.296333,0.91863 -0.296333,1.59032 0,0.89888 0.740833,1.45204 1.580445,1.45204 0.770466,0 1.343378,-0.40499 1.728611,-0.90876 0.07902,0.5334 0.553156,0.90876 1.373011,0.90876 1.145823,0 1.73849,-0.87913 1.73849,-1.37302 0,-0.91863 -0.889,-0.7112 -0.889,-1.69897 0,-1.04705 0.513644,-1.30387 0.513644,-1.90642 0,-0.39511 -0.246944,-0.67169 -0.948267,-0.67169 -0.730955,0 -1.985434,0.21732 -1.985434,1.12607 0,0.57291 0.454378,0.63218 0.454378,1.85702 0,0.80998 -0.464255,1.47179 -0.869244,1.47179 -0.2667,0 -0.582789,-0.22719 -0.582789,-0.89887 z m 8.139291,-2.14348 c 0.385233,0 0.553156,0.5334 0.553156,1.16558 0,0.96802 -0.276578,1.20508 -0.276578,1.85702 0,0.70132 0.484011,1.21497 1.382889,1.21497 1.145822,0 1.738489,-0.88901 1.738489,-1.38289 0,-0.92852 -0.948267,-0.66182 -0.948267,-1.65947 0,-0.67169 0.424745,-1.02729 0.424745,-1.52118 0,-0.69144 -0.642056,-1.0668 -1.3335,-1.0668 -0.809978,0 -1.521178,0.45438 -1.91629,0.93839 0.01976,-0.0889 0.02963,-0.1778 0.02963,-0.28646 0,-0.39511 -0.246945,-0.67169 -0.948267,-0.67169 -0.7112,0 -2.084212,0.24695 -2.084212,1.12607 0,0.69145 0.651934,0.41487 0.651934,1.84715 0,1.28411 -0.651934,1.17545 -0.651934,1.78787 0,0.55316 0.602545,0.88901 1.639712,0.88901 1.037167,0 1.639711,-0.33585 1.639711,-0.86925 0,-0.60254 -0.651933,-0.72108 -0.651933,-1.94592 0,-0.82974 0.316089,-1.4224 0.750711,-1.4224 z m 6.657626,4.23757 c 1.540934,0 2.80529,-0.41487 2.80529,-1.58045 0,-1.5113 -3.170768,-1.57057 -3.170768,-2.89419 0,-0.32597 0.217311,-0.49389 0.454378,-0.49389 0.276578,0 0.503767,0.15805 0.632178,0.66181 0.07902,0.33585 0.227189,0.65194 0.780345,0.68157 0.03951,0 0.07902,0 0.118533,0 0.642056,0 1.007534,-0.38523 0.948267,-0.78034 -0.07902,-0.55316 -0.849489,-1.22485 -2.528712,-1.22485 -1.857022,0 -2.558345,0.76059 -2.558345,1.65947 0,1.73849 2.933701,1.43228 2.933701,2.667 0,0.39511 -0.227189,0.6223 -0.5334,0.6223 -0.325967,0 -0.553156,-0.15805 -0.681567,-0.67169 -0.0889,-0.34572 -0.237067,-0.67169 -0.8001,-0.70132 -0.03951,0 -0.07902,0 -0.118534,0 -0.671689,0 -1.135944,0.40499 -1.056922,0.91863 0.0889,0.64206 1.027289,1.13595 2.775656,1.13595 z"
       id="text1"
       aria-label="über uns" />
  </g>
</svg>
