<?xml version="1.0" encoding="UTF-8" standalone="no"?>
<!-- Created with Inkscape (http://www.inkscape.org/) -->

<svg
   width="45.803276mm"
   height="9.7691069mm"
   viewBox="0 0 45.803276 9.7691069"
   version="1.1"
   id="svg1"
   xmlns="http://www.w3.org/2000/svg"
   xmlns:svg="http://www.w3.org/2000/svg">
  <defs
     id="defs1" />
  <g
     id="layer1"
     transform="translate(-109.20514,-132.49818)">
    <path
       style="font-size:9.87777px;line-height:0.8;font-family:'Bentley Vintage';-inkscape-font-specification:'Bentley Vintage, Normal';font-variant-ligatures:no-common-ligatures;text-align:center;letter-spacing:0px;text-anchor:middle;stroke-width:0.264583"
       d="m 112.58337,136.28136 c 0.38523,0 0.48401,0.42475 0.39511,1.11619 -0.079,0.65194 0.14817,1.04705 0.83961,1.04705 0.59267,0 1.62983,-0.49389 1.62983,-1.80764 0,-1.22484 -0.63217,-1.74836 -1.37301,-1.74836 -0.76058,0 -1.47178,0.45438 -1.86689,0.93839 0.0198,-0.0889 0.0296,-0.1778 0.0296,-0.28646 0,-0.39511 -0.24695,-0.67169 -0.94827,-0.67169 -0.7112,0 -2.08421,0.24695 -2.08421,1.12607 0,0.69144 0.65194,0.41487 0.65194,1.84714 0,1.28411 -0.65194,1.17546 -0.65194,1.78788 0,0.55315 0.60255,0.889 1.63971,0.889 1.03717,0 1.63971,-0.33585 1.63971,-0.86925 0,-0.60254 -0.65193,-0.72107 -0.65193,-1.94592 0,-0.82973 0.31609,-1.4224 0.75071,-1.4224 z m 6.01556,4.23757 c 1.4224,0 2.42005,-0.84949 2.51883,-1.70886 0.0198,-0.18767 -0.0494,-0.27657 -0.15804,-0.27657 -0.0692,0 -0.14817,0.0296 -0.23707,0.0988 -0.41487,0.32597 -0.91863,0.51365 -1.38289,0.51365 -0.6223,0 -1.16558,-0.3556 -1.27423,-1.17546 0.28645,0.0988 0.59266,0.14817 0.90875,0.14817 1.04705,0 2.10397,-0.5334 2.10397,-1.59032 0,-0.76059 -0.60255,-1.63971 -2.32128,-1.63971 -1.54093,0 -2.78553,1.00753 -2.78553,2.82504 0,1.81751 1.14582,2.80529 2.62749,2.80529 z m -0.5334,-3.29918 c 0.0889,-0.98777 0.47413,-1.61007 0.889,-1.61007 0.66181,0 0.33584,1.61995 -0.889,1.61007 z m 4.85987,1.778 c -0.73096,0.29633 -1.18533,0.92851 -1.18533,1.65947 0,0.85936 0.54327,1.32362 1.16557,1.32362 0.90876,0 1.39277,-0.82973 2.07434,-0.82973 0.70132,0 -0.0593,1.11618 1.02728,1.11618 0.889,0 1.47179,-0.64205 1.47179,-1.36313 0,-0.91863 -0.68156,-1.30386 -1.38289,-1.30386 -0.99765,0 -2.07433,0.55315 -2.51883,0.55315 -0.30621,0 -0.45438,-0.1778 -0.45438,-0.39511 0,-0.39511 0.42475,-0.47413 0.73096,-0.47413 0.21731,0.0296 0.4445,0.0494 0.68157,0.0494 1.50142,0 2.82504,-0.72108 2.82504,-2.2225 0,-1.21497 -0.85937,-1.91629 -1.98543,-2.14348 0.11853,-0.2667 0.2667,-0.39511 0.43462,-0.39511 0.21731,0 0.47413,0.13829 0.8001,0.13829 0.57291,0 0.91863,-0.5334 0.91863,-1.00753 0,-0.50377 -0.45438,-0.72108 -0.889,-0.72108 -0.80998,0 -1.54093,0.72108 -1.74836,1.91629 -0.11854,-0.01 -0.23707,-0.01 -0.3556,-0.01 -1.52118,0 -2.81517,0.72108 -2.81517,2.2225 0,0.91863 0.48401,1.54093 1.20509,1.88665 z m 1.61008,-3.3782 c 0.47413,0 0.7112,0.73096 0.7112,1.49155 0,0.76059 -0.23707,1.49154 -0.7112,1.49154 -0.47414,0 -0.70133,-0.73095 -0.70133,-1.49154 0,-0.76059 0.22719,-1.49155 0.70133,-1.49155 z m 5.97605,2.09409 c 0,-1.45203 0.40499,-1.57056 0.40499,-2.17311 0,-0.39511 -0.24694,-0.67169 -0.94827,-0.67169 -0.7112,0 -2.08421,0.24695 -2.08421,1.12607 0,0.69144 0.65194,0.41487 0.65194,1.84714 0,1.28411 -0.65194,1.17546 -0.65194,1.78788 0,0.55315 0.60255,0.889 1.63971,0.889 1.03717,0 1.63971,-0.33585 1.63971,-0.86925 0,-0.60254 -0.65193,-0.71119 -0.65193,-1.93604 z m -2.62749,-4.05976 c 0,-0.73096 0.99766,-1.1557 1.8669,-1.1557 0.67169,0 1.26436,0.24694 1.26436,0.81985 0,0.73096 -0.99766,1.1557 -1.8669,1.1557 -0.67169,0 -1.26436,-0.24694 -1.26436,-0.81985 z m 7.32931,4.04988 c 0,1.2446 -0.23706,2.08421 -0.7112,2.08421 -0.47413,0 -0.70132,-0.83961 -0.70132,-2.08421 0,-1.2446 0.22719,-2.08421 0.70132,-2.08421 0.47414,0 0.7112,0.83961 0.7112,2.08421 z m -3.52636,0 c 0,1.90641 1.29399,2.81517 2.81516,2.81517 1.50142,0 2.82504,-0.90876 2.82504,-2.81517 0,-1.90641 -1.32362,-2.81516 -2.82504,-2.81516 -1.52117,0 -2.81516,0.90875 -2.81516,2.81516 z m 9.54193,-1.4224 c 0.38523,0 0.55316,0.5334 0.55316,1.16558 0,0.96802 -0.27658,1.20509 -0.27658,1.85702 0,0.70132 0.48401,1.21497 1.38289,1.21497 1.14582,0 1.73848,-0.889 1.73848,-1.38289 0,-0.92851 -0.94826,-0.66181 -0.94826,-1.65946 0,-0.67169 0.42474,-1.02729 0.42474,-1.52118 0,-0.69145 -0.64205,-1.0668 -1.3335,-1.0668 -0.80997,0 -1.52117,0.45438 -1.91628,0.93839 0.0198,-0.0889 0.0296,-0.1778 0.0296,-0.28646 0,-0.39511 -0.24695,-0.67169 -0.94827,-0.67169 -0.7112,0 -2.08421,0.24695 -2.08421,1.12607 0,0.69144 0.65194,0.41487 0.65194,1.84714 0,1.28411 -0.65194,1.17546 -0.65194,1.78788 0,0.55315 0.60255,0.889 1.63971,0.889 1.03717,0 1.63971,-0.33585 1.63971,-0.86925 0,-0.60254 -0.65193,-0.72107 -0.65193,-1.94592 0,-0.82973 0.31609,-1.4224 0.75071,-1.4224 z m 5.34388,4.23757 c 0.68156,0 1.43227,-0.30621 1.83726,-0.79022 0.15805,0.48401 0.54328,0.79022 1.12607,0.79022 1.14582,0 1.73848,-0.89888 1.73848,-1.40264 0,-0.93839 -0.94826,-0.67169 -0.94826,-1.50143 0,-0.55315 0.33584,-0.82973 0.33584,-1.32362 0,-0.94826 -1.07667,-1.40264 -2.45956,-1.40264 -1.74837,0 -2.54847,0.7112 -2.63737,1.30387 -0.0593,0.41486 0.32597,0.82973 1.01741,0.82973 0.0395,0 0.079,0 0.11854,0 0.59266,-0.0395 0.74083,-0.36548 0.82973,-0.73096 0.0691,-0.29633 0.25682,-0.55315 0.56303,-0.55315 0.22719,0 0.42475,0.13829 0.4445,0.60254 -0.0691,1.40264 -3.48685,0.49389 -3.48685,2.59786 0,1.03716 0.69144,1.58044 1.52118,1.58044 z m 1.87677,-3.0226 c -0.0494,0.38523 -0.0988,0.76059 -0.12841,1.19521 -0.16792,0.31609 -0.39511,0.59267 -0.67169,0.59267 -0.2667,0 -0.39511,-0.14817 -0.39511,-0.4445 0,-0.69145 0.70132,-0.98778 1.19521,-1.34338 z m 3.93136,-0.25682 c 0,1.58044 -0.65193,1.97555 -0.65193,2.50895 0,0.47414 0.60254,0.77047 1.63971,0.77047 1.03716,0 1.63971,-0.29633 1.63971,-0.77047 0,-0.5334 -0.65194,-0.92851 -0.65194,-2.50895 v -1.18533 c 0,-1.76812 0.40499,-2.17311 0.40499,-2.77566 0,-0.39511 -0.24694,-0.67169 -0.94826,-0.67169 -0.7112,0 -2.08421,0.24695 -2.08421,1.12607 0,0.69144 0.65193,0.75071 0.65193,2.47932 z"
       id="text7"
       aria-label="regional" />
  </g>
</svg>
