<?xml version="1.0" encoding="UTF-8" standalone="no"?>
<!-- Created with Inkscape (http://www.inkscape.org/) -->

<svg
   width="67.316986mm"
   height="9.3641243mm"
   viewBox="0 0 67.316986 9.3641243"
   version="1.1"
   id="svg1"
   xmlns="http://www.w3.org/2000/svg"
   xmlns:svg="http://www.w3.org/2000/svg">
  <defs
     id="defs1" />
  <g
     id="layer1"
     transform="translate(-78.699777,-152.01149)">
    <path
       d="m 79.14427,153.52279 c -0.227188,0.11853 -0.444499,0.2667 -0.444499,0.56303 0,0.28646 0.187677,0.43462 0.444499,0.43462 0.286456,0 0.563033,0.0988 0.563033,0.50377 0,0.75071 -0.365477,1.16558 -0.365477,2.20274 0,1.25448 0.66181,2.03482 1.72861,2.03482 1.007532,0 1.619954,-0.57291 1.619954,-1.17545 0,-0.31609 -0.1778,-0.57291 -0.484011,-0.57291 -0.316089,0 -0.701322,-0.0395 -0.701322,-0.85937 0,-0.81985 0.128411,-1.49154 0.237067,-2.1336 h 0.375355 c 0.345722,0 0.553155,-0.15804 0.553155,-0.4445 0,-0.28645 -0.207433,-0.4445 -0.553155,-0.4445 h -0.256822 c 0.0099,-0.14816 0.01976,-0.29633 0.01976,-0.45437 0,-0.7112 -0.207433,-1.16558 -0.721078,-1.16558 -0.642055,0 -1.224843,1.07668 -2.015065,1.5113 z m 7.349059,1.50142 c 0.385233,0 0.484011,0.42474 0.395111,1.11619 -0.07902,0.65193 0.148167,1.04704 0.83961,1.04704 0.592667,0 1.629833,-0.49389 1.629833,-1.80763 0,-1.22485 -0.632178,-1.74837 -1.373011,-1.74837 -0.760588,0 -1.471787,0.45438 -1.866898,0.93839 0.01975,-0.0889 0.02963,-0.1778 0.02963,-0.28645 0,-0.39512 -0.246944,-0.67169 -0.948266,-0.67169 -0.711199,0 -2.084209,0.24694 -2.084209,1.12606 0,0.69145 0.651933,0.41487 0.651933,1.84715 0,1.28411 -0.651933,1.17545 -0.651933,1.78787 0,0.55316 0.602544,0.889 1.63971,0.889 1.037165,0 1.639709,-0.33584 1.639709,-0.86924 0,-0.60255 -0.651932,-0.72108 -0.651932,-1.94592 0,-0.82974 0.316088,-1.4224 0.75071,-1.4224 z m 4.612909,4.23756 c 0.681566,0 1.432277,-0.30621 1.837266,-0.79022 0.158044,0.48401 0.543277,0.79022 1.126065,0.79022 1.145822,0 1.738488,-0.89888 1.738488,-1.40264 0,-0.93839 -0.948266,-0.67169 -0.948266,-1.50142 0,-0.55316 0.335844,-0.82974 0.335844,-1.32362 0,-0.94827 -1.076677,-1.40265 -2.459565,-1.40265 -1.748365,0 -2.548464,0.7112 -2.637364,1.30387 -0.05927,0.41487 0.325966,0.82973 1.01741,0.82973 0.03951,0 0.07902,0 0.118533,0 0.592666,-0.0395 0.740833,-0.36548 0.829733,-0.73095 0.06914,-0.29634 0.256822,-0.55316 0.563033,-0.55316 0.227189,0 0.424744,0.13829 0.4445,0.60255 -0.06915,1.40264 -3.486853,0.49388 -3.486853,2.59785 0,1.03716 0.691444,1.58044 1.521176,1.58044 z m 1.876777,-3.0226 c -0.04939,0.38524 -0.09878,0.76059 -0.128411,1.19521 -0.167923,0.31609 -0.395111,0.59267 -0.671689,0.59267 -0.2667,0 -0.395111,-0.14817 -0.395111,-0.4445 0,-0.69144 0.701322,-0.98778 1.195211,-1.34338 z m 6.65762,-1.21496 c 0.385235,0 0.553155,0.5334 0.553155,1.16558 0,0.96802 -0.276578,1.20508 -0.276578,1.85702 0,0.70132 0.484008,1.21496 1.382888,1.21496 1.14582,0 1.73849,-0.889 1.73849,-1.38289 0,-0.92851 -0.94827,-0.66181 -0.94827,-1.65946 0,-0.67169 0.42475,-1.02729 0.42475,-1.52118 0,-0.69144 -0.64206,-1.0668 -1.3335,-1.0668 -0.80998,0 -1.52118,0.45438 -1.916291,0.93839 0.01976,-0.0889 0.02963,-0.1778 0.02963,-0.28645 0,-0.39512 -0.246945,-0.67169 -0.948266,-0.67169 -0.7112,0 -2.08421,0.24694 -2.08421,1.12606 0,0.69145 0.651933,0.41487 0.651933,1.84715 0,1.28411 -0.651933,1.17545 -0.651933,1.78787 0,0.55316 0.602544,0.889 1.63971,0.889 1.037166,0 1.63971,-0.33584 1.63971,-0.86924 0,-0.60255 -0.651933,-0.72108 -0.651933,-1.94592 0,-0.82974 0.316089,-1.4224 0.750711,-1.4224 z m 6.657625,4.23756 c 1.54093,0 2.80528,-0.41486 2.80528,-1.58044 0,-1.5113 -3.17076,-1.57057 -3.17076,-2.89419 0,-0.32596 0.21731,-0.49389 0.45438,-0.49389 0.27657,0 0.50376,0.15805 0.63217,0.66181 0.079,0.33585 0.22719,0.65194 0.78035,0.68157 0.0395,0 0.079,0 0.11853,0 0.64206,0 1.00753,-0.38523 0.94827,-0.78034 -0.079,-0.55316 -0.84949,-1.22485 -2.52871,-1.22485 -1.85702,0 -2.55835,0.76059 -2.55835,1.65947 0,1.73849 2.9337,1.43228 2.9337,2.667 0,0.39511 -0.22719,0.6223 -0.5334,0.6223 -0.32596,0 -0.55315,-0.15805 -0.68156,-0.67169 -0.0889,-0.34572 -0.23707,-0.67169 -0.8001,-0.70132 -0.0395,0 -0.079,0 -0.11854,0 -0.67168,0 -1.13594,0.40498 -1.05692,0.91863 0.0889,0.64205 1.02729,1.13594 2.77566,1.13594 z m 3.80293,-2.50895 v 1.50142 c 0,1.61008 -0.65193,1.81751 -0.65193,2.35091 0,0.47413 0.60254,0.77046 1.63971,0.77046 1.03716,0 1.63971,-0.29633 1.63971,-0.77046 0,-0.43462 -0.4445,-0.78034 -0.60255,-1.76812 0.34572,0.28645 0.79022,0.42474 1.34338,0.42474 1.13594,0 2.1336,-0.90875 2.1336,-2.81516 0,-1.90641 -0.99766,-2.81517 -2.1336,-2.81517 -0.65193,0 -1.1557,0.19756 -1.5113,0.59267 -0.15805,-0.40499 -0.49389,-0.59267 -1.02729,-0.59267 -0.87912,0 -1.48166,0.29634 -1.48166,0.77047 0,0.5334 0.65193,0.74083 0.65193,2.35091 z m 2.67687,-2.33116 c 0.47414,0 0.7112,0.81986 0.7112,2.02495 0,1.20509 -0.23706,2.02494 -0.7112,2.02494 -0.47413,0 -0.70132,-0.81985 -0.70132,-2.02494 0,-1.20509 0.22719,-2.02495 0.70132,-2.02495 z m 4.84012,4.84011 c 0.68156,0 1.43227,-0.30621 1.83726,-0.79022 0.15804,0.48401 0.54328,0.79022 1.12607,0.79022 1.14582,0 1.73848,-0.89888 1.73848,-1.40264 0,-0.93839 -0.94826,-0.67169 -0.94826,-1.50142 0,-0.55316 0.33584,-0.82974 0.33584,-1.32362 0,-0.94827 -1.07667,-1.40265 -2.45956,-1.40265 -1.74837,0 -2.54847,0.7112 -2.63737,1.30387 -0.0593,0.41487 0.32597,0.82973 1.01741,0.82973 0.0395,0 0.079,0 0.11854,0 0.59266,-0.0395 0.74083,-0.36548 0.82973,-0.73095 0.0691,-0.29634 0.25682,-0.55316 0.56303,-0.55316 0.22719,0 0.42475,0.13829 0.4445,0.60255 -0.0691,1.40264 -3.48685,0.49388 -3.48685,2.59785 0,1.03716 0.69144,1.58044 1.52118,1.58044 z m 1.87677,-3.0226 c -0.0494,0.38524 -0.0988,0.76059 -0.12841,1.19521 -0.16792,0.31609 -0.39511,0.59267 -0.67169,0.59267 -0.2667,0 -0.39511,-0.14817 -0.39511,-0.4445 0,-0.69144 0.70132,-0.98778 1.19521,-1.34338 z m 6.65762,-1.21496 c 0.38523,0 0.48401,0.42474 0.39511,1.11619 -0.079,0.65193 0.14817,1.04704 0.83961,1.04704 0.59267,0 1.62983,-0.49389 1.62983,-1.80763 0,-1.22485 -0.63217,-1.74837 -1.37301,-1.74837 -0.76059,0 -1.47179,0.45438 -1.8669,0.93839 0.0198,-0.0889 0.0296,-0.1778 0.0296,-0.28645 0,-0.39512 -0.24695,-0.67169 -0.94827,-0.67169 -0.7112,0 -2.08421,0.24694 -2.08421,1.12606 0,0.69145 0.65193,0.41487 0.65193,1.84715 0,1.28411 -0.65193,1.17545 -0.65193,1.78787 0,0.55316 0.60255,0.889 1.63971,0.889 1.03717,0 1.63971,-0.33584 1.63971,-0.86924 0,-0.60255 -0.65193,-0.72108 -0.65193,-1.94592 0,-0.82974 0.31609,-1.4224 0.75071,-1.4224 z m 6.01556,4.23756 c 1.4224,0 2.42005,-0.84949 2.51883,-1.70885 0.0197,-0.18768 -0.0494,-0.27658 -0.15805,-0.27658 -0.0691,0 -0.14816,0.0296 -0.23706,0.0988 -0.41487,0.32596 -0.91863,0.51364 -1.38289,0.51364 -0.6223,0 -1.16558,-0.3556 -1.27423,-1.17545 0.28645,0.0988 0.59266,0.14816 0.90875,0.14816 1.04705,0 2.10397,-0.5334 2.10397,-1.59032 0,-0.76059 -0.60255,-1.63971 -2.32128,-1.63971 -1.54093,0 -2.78553,1.00754 -2.78553,2.82505 0,1.81751 1.14582,2.80528 2.62749,2.80528 z m -0.5334,-3.29917 c 0.0889,-0.98778 0.47413,-1.61008 0.889,-1.61008 0.66181,0 0.33584,1.61995 -0.889,1.61008 z m 6.96383,-0.93839 c 0.38524,0 0.55316,0.5334 0.55316,1.16558 0,0.96802 -0.27658,1.20508 -0.27658,1.85702 0,0.70132 0.48401,1.21496 1.38289,1.21496 1.14582,0 1.73849,-0.889 1.73849,-1.38289 0,-0.92851 -0.94827,-0.66181 -0.94827,-1.65946 0,-0.67169 0.42475,-1.02729 0.42475,-1.52118 0,-0.69144 -0.64206,-1.0668 -1.3335,-1.0668 -0.80998,0 -1.52118,0.45438 -1.91629,0.93839 0.0198,-0.0889 0.0296,-0.1778 0.0296,-0.28645 0,-0.39512 -0.24694,-0.67169 -0.94826,-0.67169 -0.7112,0 -2.08421,0.24694 -2.08421,1.12606 0,0.69145 0.65193,0.41487 0.65193,1.84715 0,1.28411 -0.65193,1.17545 -0.65193,1.78787 0,0.55316 0.60254,0.889 1.63971,0.889 1.03716,0 1.63971,-0.33584 1.63971,-0.86924 0,-0.60255 -0.65194,-0.72108 -0.65194,-1.94592 0,-0.82974 0.31609,-1.4224 0.75071,-1.4224 z m 3.87209,-1.50142 c -0.22719,0.11853 -0.4445,0.2667 -0.4445,0.56303 0,0.28646 0.18768,0.43462 0.4445,0.43462 0.28645,0 0.56303,0.0988 0.56303,0.50377 0,0.75071 -0.36548,1.16558 -0.36548,2.20274 0,1.25448 0.66181,2.03482 1.72861,2.03482 1.00754,0 1.61996,-0.57291 1.61996,-1.17545 0,-0.31609 -0.1778,-0.57291 -0.48401,-0.57291 -0.31609,0 -0.70132,-0.0395 -0.70132,-0.85937 0,-0.81985 0.12841,-1.49154 0.23706,-2.1336 h 0.37536 c 0.34572,0 0.55315,-0.15804 0.55315,-0.4445 0,-0.28645 -0.20743,-0.4445 -0.55315,-0.4445 h -0.25682 c 0.01,-0.14816 0.0198,-0.29633 0.0198,-0.45437 0,-0.7112 -0.20743,-1.16558 -0.72108,-1.16558 -0.64205,0 -1.22484,1.07668 -2.01506,1.5113 z"
       id="text8"
       style="font-size:9.87777px;line-height:0.8;font-family:'Bentley Vintage';-inkscape-font-specification:'Bentley Vintage, Normal';font-variant-ligatures:no-common-ligatures;text-align:center;letter-spacing:0px;text-anchor:middle;stroke-width:0.264583"
       aria-label="transparent" />
  </g>
</svg>
