<?xml version="1.0" encoding="UTF-8" standalone="no"?>
<!-- Created with Inkscape (http://www.inkscape.org/) -->

<svg
   width="66.184433mm"
   height="10.134592mm"
   viewBox="0 0 66.184433 10.134592"
   version="1.1"
   id="svg1"
   xmlns="http://www.w3.org/2000/svg"
   xmlns:svg="http://www.w3.org/2000/svg">
  <defs
     id="defs1" />
  <g
     id="layer1"
     transform="translate(-24.307694,-61.456777)">
    <path
       d="m 26.678359,67.383436 c 0,-1.214965 0.563033,-2.232376 0.563033,-2.884309 0,-0.39511 -0.1778,-0.671688 -0.859366,-0.671688 -0.7112,0 -2.074332,0.246944 -2.074332,1.126066 0,0.691444 0.553155,0.622299 0.553155,1.481665 0,0.760589 -0.296333,0.918633 -0.296333,1.590321 0,0.898878 0.740833,1.452033 1.580443,1.452033 0.770467,0 1.343377,-0.404989 1.72861,-0.908755 0.07902,0.533399 0.553155,0.908755 1.37301,0.908755 1.145822,0 1.738488,-0.879122 1.738488,-1.37301 0,-0.918633 -0.888999,-0.7112 -0.888999,-1.698977 0,-1.047044 0.513644,-1.303866 0.513644,-1.90641 0,-0.39511 -0.246945,-0.671688 -0.948266,-0.671688 -0.730955,0 -1.985432,0.217311 -1.985432,1.126066 0,0.572911 0.454377,0.632177 0.454377,1.857021 0,0.809977 -0.464255,1.471788 -0.869243,1.471788 -0.2667,0 -0.582789,-0.227189 -0.582789,-0.898878 z m 8.139284,-2.143476 c 0.385233,0 0.553155,0.5334 0.553155,1.165577 0,0.968022 -0.276577,1.205088 -0.276577,1.857021 0,0.701322 0.48401,1.214966 1.382888,1.214966 1.145821,0 1.738487,-0.889 1.738487,-1.382888 0,-0.928511 -0.948266,-0.661811 -0.948266,-1.659466 0,-0.671688 0.424744,-1.027288 0.424744,-1.521176 0,-0.691444 -0.642055,-1.066799 -1.333499,-1.066799 -0.809977,0 -1.521176,0.454377 -1.916287,0.938388 0.01976,-0.0889 0.02963,-0.1778 0.02963,-0.286456 0,-0.39511 -0.246944,-0.671688 -0.948266,-0.671688 -0.711199,0 -2.084209,0.246944 -2.084209,1.126066 0,0.691444 0.651933,0.414866 0.651933,1.847143 0,1.28411 -0.651933,1.175455 -0.651933,1.787876 0,0.553156 0.602544,0.889 1.63971,0.889 1.037165,0 1.639709,-0.335844 1.639709,-0.869244 0,-0.602544 -0.651932,-0.721077 -0.651932,-1.945921 0,-0.829733 0.316088,-1.422399 0.75071,-1.422399 z m 6.657621,4.237564 c 1.540932,0 2.805287,-0.414867 2.805287,-1.580444 0,-1.511298 -3.170765,-1.570565 -3.170765,-2.894186 0,-0.325967 0.217311,-0.493889 0.454378,-0.493889 0.276577,0 0.503766,0.158045 0.632177,0.661811 0.07902,0.335844 0.227189,0.651933 0.780344,0.681566 0.03951,0 0.07902,0 0.118533,0 0.642055,0 1.007533,-0.385233 0.948266,-0.780344 -0.07902,-0.553155 -0.849488,-1.224843 -2.528709,-1.224843 -1.857021,0 -2.558343,0.760588 -2.558343,1.659465 0,1.738488 2.933698,1.432277 2.933698,2.666998 0,0.395111 -0.227189,0.6223 -0.5334,0.6223 -0.325966,0 -0.553155,-0.158045 -0.681566,-0.671689 -0.0889,-0.345722 -0.237066,-0.671688 -0.800099,-0.701322 -0.03951,0 -0.07902,0 -0.118533,0 -0.671689,0 -1.135944,0.404989 -1.056922,0.918633 0.0889,0.642055 1.027288,1.135944 2.775654,1.135944 z m 5.976043,0 c 1.422399,0 2.420054,-0.849489 2.518831,-1.708855 0.01976,-0.187677 -0.04939,-0.276577 -0.158044,-0.276577 -0.06914,0 -0.148167,0.02963 -0.237066,0.09878 -0.414867,0.325966 -0.918633,0.513644 -1.382888,0.513644 -0.6223,0 -1.165577,-0.3556 -1.274233,-1.175455 0.286456,0.09878 0.592667,0.148167 0.908755,0.148167 1.047044,0 2.103965,-0.5334 2.103965,-1.590322 0,-0.760588 -0.602544,-1.639709 -2.321276,-1.639709 -1.540932,0 -2.785531,1.007532 -2.785531,2.825042 0,1.81751 1.145821,2.805287 2.627487,2.805287 z m -0.5334,-3.299176 c 0.0889,-0.987777 0.474133,-1.610076 0.889,-1.610076 0.66181,0 0.335844,1.619954 -0.889,1.610076 z m 6.963835,-0.938388 c 0.385233,0 0.484011,0.424744 0.395111,1.116188 -0.07902,0.651933 0.148166,1.047044 0.83961,1.047044 0.592667,0 1.629832,-0.493889 1.629832,-1.807632 0,-1.224844 -0.632177,-1.748365 -1.37301,-1.748365 -0.760588,0 -1.471787,0.454377 -1.866898,0.938388 0.01976,-0.0889 0.02963,-0.1778 0.02963,-0.286456 0,-0.39511 -0.246944,-0.671688 -0.948266,-0.671688 -0.711199,0 -2.084209,0.246944 -2.084209,1.126066 0,0.691444 0.651932,0.414866 0.651932,1.847143 0,1.28411 -0.651932,1.175455 -0.651932,1.787876 0,0.553156 0.602544,0.889 1.639709,0.889 1.037166,0 1.63971,-0.335844 1.63971,-0.869244 0,-0.602544 -0.651933,-0.721077 -0.651933,-1.945921 0,-0.829733 0.316089,-1.422399 0.750711,-1.422399 z m 6.015558,4.237564 c 1.422399,0 2.420054,-0.849489 2.518832,-1.708855 0.01976,-0.187677 -0.04939,-0.276577 -0.158045,-0.276577 -0.06914,0 -0.148166,0.02963 -0.237066,0.09878 -0.414866,0.325966 -0.918633,0.513644 -1.382888,0.513644 -0.622299,0 -1.165577,-0.3556 -1.274232,-1.175455 0.286455,0.09878 0.592666,0.148167 0.908755,0.148167 1.047043,0 2.103965,-0.5334 2.103965,-1.590322 0,-0.760588 -0.602544,-1.639709 -2.321276,-1.639709 -1.540933,0 -2.785532,1.007532 -2.785532,2.825042 0,1.81751 1.145822,2.805287 2.627487,2.805287 z m -0.533399,-3.299176 c 0.0889,-0.987777 0.474133,-1.610076 0.888999,-1.610076 0.661811,0 0.335844,1.619954 -0.888999,1.610076 z m 6.677383,0.790222 v 1.501421 c 0,1.610077 -0.651933,1.81751 -0.651933,2.35091 0,0.474132 0.602544,0.770466 1.63971,0.770466 1.037166,0 1.63971,-0.296334 1.63971,-0.770466 0,-0.434622 -0.4445,-0.780344 -0.602544,-1.768121 0.345722,0.286455 0.790221,0.424744 1.343376,0.424744 1.135944,0 2.133599,-0.908755 2.133599,-2.815165 0,-1.90641 -0.997655,-2.815164 -2.133599,-2.815164 -0.651932,0 -1.155699,0.197555 -1.511298,0.592666 -0.158045,-0.404989 -0.493889,-0.592666 -1.027289,-0.592666 -0.879121,0 -1.481665,0.296333 -1.481665,0.770466 0,0.533399 0.651933,0.740832 0.651933,2.350909 z m 2.676876,-2.331154 c 0.474132,0 0.711199,0.819855 0.711199,2.024943 0,1.205088 -0.237067,2.024943 -0.711199,2.024943 -0.474133,0 -0.701322,-0.819855 -0.701322,-2.024943 0,-1.205088 0.227189,-2.024943 0.701322,-2.024943 z m 5.97605,2.034821 c 0,-1.452032 0.404989,-1.570566 0.404989,-2.17311 0,-0.39511 -0.246944,-0.671688 -0.948266,-0.671688 -0.711199,0 -2.084209,0.246944 -2.084209,1.126066 0,0.691444 0.651932,0.414866 0.651932,1.847143 0,1.28411 -0.651932,1.175455 -0.651932,1.787876 0,0.553156 0.602544,0.889 1.639709,0.889 1.037166,0 1.63971,-0.335844 1.63971,-0.869244 0,-0.602544 -0.651933,-0.7112 -0.651933,-1.936043 z m -2.627486,-4.059764 c 0,-0.730955 0.997654,-1.155699 1.866898,-1.155699 0.671689,0 1.264355,0.246944 1.264355,0.819855 0,0.730955 -0.997655,1.155699 -1.866899,1.155699 -0.671688,0 -1.264354,-0.246944 -1.264354,-0.819855 z m 4.385731,3.585631 c 0,1.580443 -0.651932,1.975554 -0.651932,2.508954 0,0.474133 0.602544,0.770466 1.639709,0.770466 1.037166,0 1.63971,-0.296333 1.63971,-0.770466 0,-0.5334 -0.651933,-0.928511 -0.651933,-2.508954 v -1.185332 c 0,-1.768121 0.404989,-2.17311 0.404989,-2.775654 0,-0.395111 -0.246944,-0.671688 -0.948266,-0.671688 -0.711199,0 -2.084209,0.246944 -2.084209,1.126065 0,0.691444 0.651932,0.750711 0.651932,2.479321 z m 5.887153,1.985432 c 0,-0.790222 2.360787,-3.01272 2.360787,-3.842453 0,-0.335844 -0.167922,-0.493888 -0.701321,-0.493888 -0.553155,0 -1.106311,0.09878 -1.560688,0.09878 -0.740833,0 -1.116188,-0.09878 -1.511299,-0.09878 -0.474133,0 -0.809977,0.345722 -1.027288,0.859366 -0.237066,0.563033 -0.484011,1.481665 0.197555,1.481665 0.8001,0 1.096433,-1.353254 1.698977,-1.353254 0.197555,0 0.316089,0.108655 0.316089,0.306211 0,0.770466 -2.558343,3.042353 -2.558343,3.802941 0,0.335844 0.207433,0.5334 0.701322,0.5334 0.632177,0 0.948266,-0.09878 1.580443,-0.09878 0.642055,0 1.452032,0.09878 1.748365,0.09878 0.4445,0 0.760589,-0.345722 0.968022,-0.859366 0.227189,-0.563033 0.484011,-1.481666 -0.197556,-1.481666 -0.800099,0 -1.096432,1.353255 -1.698976,1.353255 -0.197555,0 -0.316089,-0.108656 -0.316089,-0.306211 z m 5.630324,1.293988 c 1.422399,0 2.420054,-0.849489 2.518832,-1.708855 0.01976,-0.187677 -0.04939,-0.276577 -0.158045,-0.276577 -0.06914,0 -0.148166,0.02963 -0.237066,0.09878 -0.414867,0.325966 -0.918633,0.513644 -1.382888,0.513644 -0.6223,0 -1.165577,-0.3556 -1.274232,-1.175455 0.286455,0.09878 0.592666,0.148167 0.908754,0.148167 1.047044,0 2.103966,-0.5334 2.103966,-1.590322 0,-0.760588 -0.602544,-1.639709 -2.321277,-1.639709 -1.540932,0 -2.785531,1.007532 -2.785531,2.825042 0,1.81751 1.145822,2.805287 2.627487,2.805287 z m -0.533399,-3.299176 c 0.0889,-0.987777 0.474133,-1.610076 0.888999,-1.610076 0.661811,0 0.335844,1.619954 -0.888999,1.610076 z"
       id="text2"
       style="font-size:9.87777px;line-height:0.8;font-family:'Bentley Vintage';-inkscape-font-specification:'Bentley Vintage, Normal';font-variant-ligatures:no-common-ligatures;text-align:center;letter-spacing:0px;text-anchor:middle;stroke-width:0.264583"
       aria-label="unsere pilze" />
  </g>
</svg>
